<svg width="16" height="16" viewBox="0 0 16 16" fill="none" xmlns="http://www.w3.org/2000/svg">
<path d="M5.93333 12.7667C5.51333 12.7667 5.12 12.6667 4.77333 12.4667C3.95333 11.9933 3.5 11.04 3.5 9.78667V6.22C3.5 4.96667 3.95333 4.01334 4.77333 3.54001C5.59333 3.06667 6.64 3.15334 7.73333 3.78001L10.82 5.56C11.9067 6.18667 12.5067 7.05334 12.5067 8C12.5067 8.94667 11.9067 9.81334 10.82 10.44L7.73333 12.22C7.10667 12.5867 6.49333 12.7667 5.93333 12.7667ZM5.93333 4.24001C5.68667 4.24001 5.46 4.29334 5.26667 4.40667C4.77333 4.69334 4.5 5.33334 4.5 6.22V9.78C4.5 10.66 4.77333 11.3067 5.27333 11.5933C5.77333 11.88 6.46667 11.7933 7.23333 11.3533L10.32 9.57334C11.0867 9.13334 11.5067 8.57334 11.5067 8C11.5067 7.42667 11.0867 6.86667 10.32 6.42667L7.23333 4.64667C6.76 4.37334 6.32 4.24001 5.93333 4.24001Z" fill="#AEBACB"/>
</svg>
