<svg width="16" height="16" viewBox="0 0 16 16" fill="none" xmlns="http://www.w3.org/2000/svg">
<path d="M5.33334 3.83334C5.06 3.83334 4.83334 3.60668 4.83334 3.33334V1.33334C4.83334 1.06001 5.06 0.833344 5.33334 0.833344C5.60667 0.833344 5.83334 1.06001 5.83334 1.33334V3.33334C5.83334 3.60668 5.60667 3.83334 5.33334 3.83334Z" fill="#AEBACB"/>
<path d="M10.6667 3.83334C10.3933 3.83334 10.1667 3.60668 10.1667 3.33334V1.33334C10.1667 1.06001 10.3933 0.833344 10.6667 0.833344C10.94 0.833344 11.1667 1.06001 11.1667 1.33334V3.33334C11.1667 3.60668 10.94 3.83334 10.6667 3.83334Z" fill="#AEBACB"/>
<path d="M12.1333 14.7667C10.68 14.7667 9.5 13.5867 9.5 12.1333C9.5 10.68 10.68 9.5 12.1333 9.5C13.5867 9.5 14.7667 10.68 14.7667 12.1333C14.7667 13.5867 13.5867 14.7667 12.1333 14.7667ZM12.1333 10.5C11.2333 10.5 10.5 11.2333 10.5 12.1333C10.5 13.0333 11.2333 13.7667 12.1333 13.7667C13.0333 13.7667 13.7667 13.0333 13.7667 12.1333C13.7667 11.2333 13.0333 10.5 12.1333 10.5Z" fill="#AEBACB"/>
<path d="M14.6666 15.1667C14.54 15.1667 14.4133 15.12 14.3133 15.02L13.6466 14.3533C13.4533 14.16 13.4533 13.84 13.6466 13.6467C13.84 13.4533 14.16 13.4533 14.3533 13.6467L15.02 14.3133C15.2133 14.5067 15.2133 14.8267 15.02 15.02C14.92 15.12 14.7933 15.1667 14.6666 15.1667Z" fill="#AEBACB"/>
<path d="M5.66667 9.66667C5.58 9.66667 5.49333 9.64668 5.41333 9.61335C5.32666 9.58002 5.25333 9.53333 5.19333 9.47333C5.16666 9.44 5.13333 9.40667 5.11333 9.37334C5.08667 9.33334 5.06667 9.29334 5.05333 9.25334C5.03333 9.21334 5.02 9.17335 5.01334 9.13335C5.00667 9.08668 5 9.04001 5 9.00001C5 8.82667 5.07333 8.65335 5.19333 8.52668C5.25333 8.46668 5.32666 8.42 5.41333 8.38666C5.65333 8.28 5.95334 8.34001 6.14 8.52668C6.26 8.65335 6.33333 8.82667 6.33333 9.00001C6.33333 9.04001 6.32666 9.08668 6.32 9.13335C6.31333 9.17335 6.3 9.21334 6.28 9.25334C6.26667 9.29334 6.24667 9.33334 6.22 9.37334C6.19333 9.40667 6.16667 9.44 6.14 9.47333C6.01334 9.59333 5.84 9.66667 5.66667 9.66667Z" fill="#AEBACB"/>
<path d="M8 9.66667C7.82667 9.66667 7.65333 9.59333 7.52666 9.47333C7.40666 9.34666 7.33334 9.18 7.33334 9C7.33334 8.91334 7.35334 8.82667 7.38667 8.74667C7.42 8.66667 7.46666 8.59334 7.52666 8.52667C7.77333 8.28001 8.22001 8.28001 8.47334 8.52667C8.59334 8.65334 8.66667 8.82667 8.66667 9C8.66667 9.04 8.66 9.08668 8.65333 9.13334C8.64667 9.17334 8.63333 9.21334 8.61333 9.25334C8.6 9.29334 8.58 9.33333 8.55334 9.37333C8.52667 9.40667 8.50001 9.44 8.47334 9.47333C8.34667 9.59333 8.17334 9.66667 8 9.66667Z" fill="#AEBACB"/>
<path d="M5.66667 12C5.49333 12 5.32 11.9267 5.19333 11.8067C5.07333 11.68 5 11.5067 5 11.3333C5 11.2467 5.02 11.16 5.05333 11.08C5.08667 10.9933 5.13333 10.92 5.19333 10.86C5.44 10.6134 5.89334 10.6134 6.14 10.86C6.26 10.9867 6.33333 11.16 6.33333 11.3333C6.33333 11.5067 6.26 11.68 6.14 11.8067C6.01334 11.9267 5.84 12 5.66667 12Z" fill="#AEBACB"/>
<path d="M13.6667 6.55997H2.33334C2.06 6.55997 1.83334 6.3333 1.83334 6.05997C1.83334 5.78663 2.06 5.55997 2.33334 5.55997H13.6667C13.94 5.55997 14.1667 5.78663 14.1667 6.05997C14.1667 6.3333 13.94 6.55997 13.6667 6.55997Z" fill="#AEBACB"/>
<path d="M8.91333 15.1667H5.33333C2.9 15.1667 1.5 13.7667 1.5 11.3333V5.66668C1.5 3.23334 2.9 1.83334 5.33333 1.83334H10.6667C13.1 1.83334 14.5 3.23334 14.5 5.66668V8.66668C14.5 8.94001 14.2733 9.16668 14 9.16668C13.7267 9.16668 13.5 8.94001 13.5 8.66668V5.66668C13.5 3.76001 12.5733 2.83334 10.6667 2.83334H5.33333C3.42667 2.83334 2.5 3.76001 2.5 5.66668V11.3333C2.5 13.24 3.42667 14.1667 5.33333 14.1667H8.91333C9.18666 14.1667 9.41333 14.3933 9.41333 14.6667C9.41333 14.94 9.18666 15.1667 8.91333 15.1667Z" fill="#AEBACB"/>
</svg>
