<svg width="16" height="16" viewBox="0 0 16 16" fill="none" xmlns="http://www.w3.org/2000/svg">
<path d="M8 15.1667C4.04667 15.1667 0.833336 11.9533 0.833336 8.00001C0.833336 4.04668 4.04667 0.833344 8 0.833344C11.9533 0.833344 15.1667 4.04668 15.1667 8.00001C15.1667 11.9533 11.9533 15.1667 8 15.1667ZM8 1.83334C4.6 1.83334 1.83334 4.60001 1.83334 8.00001C1.83334 11.4 4.6 14.1667 8 14.1667C11.4 14.1667 14.1667 11.4 14.1667 8.00001C14.1667 4.60001 11.4 1.83334 8 1.83334Z" fill="#AEBACB"/>
<path d="M10.4733 10.62C10.3867 10.62 10.3 10.6 10.22 10.5467L8.15334 9.31332C7.64 9.00665 7.26 8.33332 7.26 7.73999V5.00665C7.26 4.73332 7.48667 4.50665 7.76 4.50665C8.03334 4.50665 8.26 4.73332 8.26 5.00665V7.73999C8.26 7.97999 8.46 8.33332 8.66667 8.45332L10.7333 9.68665C10.9733 9.82665 11.0467 10.1333 10.9067 10.3733C10.8067 10.5333 10.64 10.62 10.4733 10.62Z" fill="#AEBACB"/>
</svg>
