<svg width="16" height="16" viewBox="0 0 16 16" fill="none" xmlns="http://www.w3.org/2000/svg">
<path d="M8.00214 15.1688C4.04881 15.1688 0.83548 11.9554 0.83548 8.00211C0.83548 4.04878 4.04881 0.835449 8.00214 0.835449C11.9555 0.835449 15.1688 4.04878 15.1688 8.00211C15.1688 11.9554 11.9555 15.1688 8.00214 15.1688ZM8.00214 1.83545C4.60215 1.83545 1.83548 4.60212 1.83548 8.00211C1.83548 11.4021 4.60215 14.1688 8.00214 14.1688C11.4021 14.1688 14.1688 11.4021 14.1688 8.00211C14.1688 4.60212 11.4021 1.83545 8.00214 1.83545Z" fill="#12467B"/>
<path d="M8 9.16878C7.72667 9.16878 7.5 8.94211 7.5 8.66878V5.33545C7.5 5.06212 7.72667 4.83545 8 4.83545C8.27333 4.83545 8.5 5.06212 8.5 5.33545V8.66878C8.5 8.94211 8.27333 9.16878 8 9.16878Z" fill="#12467B"/>
<path d="M8.00215 11.3346C7.91548 11.3346 7.82881 11.3146 7.74881 11.2812C7.66881 11.2479 7.59548 11.2012 7.52881 11.1412C7.46881 11.0746 7.42215 11.0079 7.38881 10.9212C7.35548 10.8412 7.33548 10.7546 7.33548 10.6679C7.33548 10.5812 7.35548 10.4946 7.38881 10.4146C7.42215 10.3346 7.46881 10.2612 7.52881 10.1946C7.59548 10.1346 7.66881 10.0879 7.74881 10.0546C7.90881 9.98791 8.09548 9.98791 8.25548 10.0546C8.33548 10.0879 8.40881 10.1346 8.47548 10.1946C8.53548 10.2612 8.58215 10.3346 8.61548 10.4146C8.64881 10.4946 8.66881 10.5812 8.66881 10.6679C8.66881 10.7546 8.64881 10.8412 8.61548 10.9212C8.58215 11.0079 8.53548 11.0746 8.47548 11.1412C8.40881 11.2012 8.33548 11.2479 8.25548 11.2812C8.17548 11.3146 8.08881 11.3346 8.00215 11.3346Z" fill="#12467B"/>
</svg>
