<svg width="16" height="16" viewBox="0 0 16 16" fill="none" xmlns="http://www.w3.org/2000/svg">
<path d="M7.94667 15.1667C4 15.1667 0.779999 11.9533 0.779999 8.00001C0.779999 4.04668 4 0.833344 7.94667 0.833344C11.8933 0.833344 15.1133 4.04668 15.1133 8.00001C15.1133 11.9533 11.9 15.1667 7.94667 15.1667ZM7.94667 1.83334C4.54667 1.83334 1.78 4.60001 1.78 8.00001C1.78 11.4 4.54667 14.1667 7.94667 14.1667C11.3467 14.1667 14.1133 11.4 14.1133 8.00001C14.1133 4.60001 11.3467 1.83334 7.94667 1.83334Z" fill="#BE123C"/>
<path d="M10.6133 8.5H5.28C5.00667 8.5 4.78 8.27333 4.78 8C4.78 7.72667 5.00667 7.5 5.28 7.5H10.6133C10.8867 7.5 11.1133 7.72667 11.1133 8C11.1133 8.27333 10.8933 8.5 10.6133 8.5Z" fill="#BE123C"/>
</svg>
