<svg width="15" height="18" viewBox="0 0 15 18" fill="none" xmlns="http://www.w3.org/2000/svg">
<path d="M6.66665 0.333344V1.16668H3.33331C1.9526 1.16668 0.833313 2.28597 0.833313 3.66668V6.16668C0.833313 8.46784 2.6988 10.3333 4.99998 10.3333H9.99998C12.3011 10.3333 14.1666 8.46784 14.1666 6.16668V3.66668C14.1666 2.28597 13.0474 1.16668 11.6666 1.16668H8.33331V0.333344H6.66665ZM2.49998 3.66668C2.49998 3.20644 2.87308 2.83334 3.33331 2.83334H11.6666C12.1269 2.83334 12.5 3.20644 12.5 3.66668V6.16668C12.5 7.54739 11.3807 8.66668 9.99998 8.66668H4.99998C3.61927 8.66668 2.49998 7.54739 2.49998 6.16668V3.66668ZM5.41665 7.00001C6.10698 7.00001 6.66665 6.44037 6.66665 5.75001C6.66665 5.05965 6.10698 4.50001 5.41665 4.50001C4.72629 4.50001 4.16665 5.05965 4.16665 5.75001C4.16665 6.44037 4.72629 7.00001 5.41665 7.00001ZM9.58331 7.00001C10.2736 7.00001 10.8333 6.44037 10.8333 5.75001C10.8333 5.05965 10.2736 4.50001 9.58331 4.50001C8.89298 4.50001 8.33331 5.05965 8.33331 5.75001C8.33331 6.44037 8.89298 7.00001 9.58331 7.00001ZM2.49998 17.8333C2.49998 15.0719 4.73855 12.8333 7.49998 12.8333C10.2614 12.8333 12.5 15.0719 12.5 17.8333H14.1666C14.1666 14.1514 11.1819 11.1667 7.49998 11.1667C3.81808 11.1667 0.833313 14.1514 0.833313 17.8333H2.49998Z" fill="#0097FA"/>
</svg>
